<?xml version="1.0" encoding="utf-8" standalone="no"?>
<!DOCTYPE svg PUBLIC "-//W3C//DTD SVG 1.1//EN"
  "http://www.w3.org/Graphics/SVG/1.1/DTD/svg11.dtd">
<!-- Created with matplotlib (https://matplotlib.org/) -->
<svg height="1440pt" version="1.1" viewBox="0 0 2160 1440" width="2160pt" xmlns="http://www.w3.org/2000/svg" xmlns:xlink="http://www.w3.org/1999/xlink">
 <defs>
  <style type="text/css">
*{stroke-linecap:butt;stroke-linejoin:round;}
  </style>
 </defs>
 <g id="figure_1">
  <g id="patch_1">
   <path d="M 0 1440 
L 2160 1440 
L 2160 0 
L 0 0 
z
" style="fill:#ffffff;"/>
  </g>
  <g id="axes_1">
   <g id="patch_2">
    <path d="M 270 709.688889 
L 818.852459 709.688889 
L 818.852459 172.8 
L 270 172.8 
z
" style="fill:#ffffff;"/>
   </g>
   <g id="matplotlib.axis_1">
    <g id="xtick_1">
     <g id="line2d_1">
      <path clip-path="url(#p81f59b3499)" d="M 270 709.688889 
L 270 172.8 
" style="fill:none;stroke:#cccccc;stroke-linecap:round;"/>
     </g>
     <g id="text_1">
      <text style="fill:#262626;font-family:Arial;font-size:33px;font-style:normal;font-weight:normal;text-anchor:middle;" transform="rotate(-0, 270, 742.80967)" x="270" y="742.80967">0</text>
     </g>
    </g>
    <g id="xtick_2">
     <g id="line2d_2">
      <path clip-path="url(#p81f59b3499)" d="M 379.770492 709.688889 
L 379.770492 172.8 
" style="fill:none;stroke:#cccccc;stroke-linecap:round;"/>
     </g>
     <g id="text_2">
      <text style="fill:#262626;font-family:Arial;font-size:33px;font-style:normal;font-weight:normal;text-anchor:middle;" transform="rotate(-0, 379.770492, 742.80967)" x="379.770492" y="742.80967">1</text>
     </g>
    </g>
    <g id="xtick_3">
     <g id="line2d_3">
      <path clip-path="url(#p81f59b3499)" d="M 489.540984 709.688889 
L 489.540984 172.8 
" style="fill:none;stroke:#cccccc;stroke-linecap:round;"/>
     </g>
     <g id="text_3">
      <text style="fill:#262626;font-family:Arial;font-size:33px;font-style:normal;font-weight:normal;text-anchor:middle;" transform="rotate(-0, 489.540984, 742.80967)" x="489.540984" y="742.80967">2</text>
     </g>
    </g>
    <g id="xtick_4">
     <g id="line2d_4">
      <path clip-path="url(#p81f59b3499)" d="M 599.311475 709.688889 
L 599.311475 172.8 
" style="fill:none;stroke:#cccccc;stroke-linecap:round;"/>
     </g>
     <g id="text_4">
      <text style="fill:#262626;font-family:Arial;font-size:33px;font-style:normal;font-weight:normal;text-anchor:middle;" transform="rotate(-0, 599.311475, 742.80967)" x="599.311475" y="742.80967">3</text>
     </g>
    </g>
    <g id="xtick_5">
     <g id="line2d_5">
      <path clip-path="url(#p81f59b3499)" d="M 709.081967 709.688889 
L 709.081967 172.8 
" style="fill:none;stroke:#cccccc;stroke-linecap:round;"/>
     </g>
     <g id="text_5">
      <text style="fill:#262626;font-family:Arial;font-size:33px;font-style:normal;font-weight:normal;text-anchor:middle;" transform="rotate(-0, 709.081967, 742.80967)" x="709.081967" y="742.80967">4</text>
     </g>
    </g>
    <g id="xtick_6">
     <g id="line2d_6">
      <path clip-path="url(#p81f59b3499)" d="M 818.852459 709.688889 
L 818.852459 172.8 
" style="fill:none;stroke:#cccccc;stroke-linecap:round;"/>
     </g>
    </g>
    <g id="text_6">
     <text style="fill:#262626;font-family:Arial;font-size:36px;font-style:normal;font-weight:normal;text-anchor:middle;" transform="rotate(-0, 544.42623, 779.136545)" x="544.42623" y="779.136545">RMSD</text>
    </g>
   </g>
   <g id="matplotlib.axis_2">
    <g id="ytick_1">
     <g id="line2d_7">
      <path clip-path="url(#p81f59b3499)" d="M 270 709.688889 
L 818.852459 709.688889 
" style="fill:none;stroke:#cccccc;stroke-linecap:round;"/>
     </g>
     <g id="text_7">
      <text style="fill:#262626;font-family:Arial;font-size:33px;font-style:normal;font-weight:normal;text-anchor:end;" transform="rotate(-0, 260.5, 721.49928)" x="260.5" y="721.49928">0.0</text>
     </g>
    </g>
    <g id="ytick_2">
     <g id="line2d_8">
      <path clip-path="url(#p81f59b3499)" d="M 270 602.311111 
L 818.852459 602.311111 
" style="fill:none;stroke:#cccccc;stroke-linecap:round;"/>
     </g>
     <g id="text_8">
      <text style="fill:#262626;font-family:Arial;font-size:33px;font-style:normal;font-weight:normal;text-anchor:end;" transform="rotate(-0, 260.5, 614.121502)" x="260.5" y="614.121502">0.2</text>
     </g>
    </g>
    <g id="ytick_3">
     <g id="line2d_9">
      <path clip-path="url(#p81f59b3499)" d="M 270 494.933333 
L 818.852459 494.933333 
" style="fill:none;stroke:#cccccc;stroke-linecap:round;"/>
     </g>
     <g id="text_9">
      <text style="fill:#262626;font-family:Arial;font-size:33px;font-style:normal;font-weight:normal;text-anchor:end;" transform="rotate(-0, 260.5, 506.743724)" x="260.5" y="506.743724">0.4</text>
     </g>
    </g>
    <g id="ytick_4">
     <g id="line2d_10">
      <path clip-path="url(#p81f59b3499)" d="M 270 387.555556 
L 818.852459 387.555556 
" style="fill:none;stroke:#cccccc;stroke-linecap:round;"/>
     </g>
     <g id="text_10">
      <text style="fill:#262626;font-family:Arial;font-size:33px;font-style:normal;font-weight:normal;text-anchor:end;" transform="rotate(-0, 260.5, 399.365946)" x="260.5" y="399.365946">0.6</text>
     </g>
    </g>
    <g id="ytick_5">
     <g id="line2d_11">
      <path clip-path="url(#p81f59b3499)" d="M 270 280.177778 
L 818.852459 280.177778 
" style="fill:none;stroke:#cccccc;stroke-linecap:round;"/>
     </g>
     <g id="text_11">
      <text style="fill:#262626;font-family:Arial;font-size:33px;font-style:normal;font-weight:normal;text-anchor:end;" transform="rotate(-0, 260.5, 291.988168)" x="260.5" y="291.988168">0.8</text>
     </g>
    </g>
    <g id="ytick_6">
     <g id="line2d_12">
      <path clip-path="url(#p81f59b3499)" d="M 270 172.8 
L 818.852459 172.8 
" style="fill:none;stroke:#cccccc;stroke-linecap:round;"/>
     </g>
     <g id="text_12">
      <text style="fill:#262626;font-family:Arial;font-size:33px;font-style:normal;font-weight:normal;text-anchor:end;" transform="rotate(-0, 260.5, 184.610391)" x="260.5" y="184.610391">1.0</text>
     </g>
    </g>
   </g>
   <g id="PolyCollection_1">
    <defs>
     <path d="M 288.342649 -730.341722 
L 288.342649 -730.311111 
L 294.762005 -730.311111 
L 301.181362 -730.311111 
L 307.600718 -730.311111 
L 314.020074 -730.311111 
L 320.43943 -730.311111 
L 326.858786 -730.311111 
L 333.278142 -730.311111 
L 339.697499 -730.311111 
L 346.116855 -730.311111 
L 352.536211 -730.311111 
L 358.955567 -730.311111 
L 365.374923 -730.311111 
L 371.79428 -730.311111 
L 378.213636 -730.311111 
L 384.632992 -730.311111 
L 391.052348 -730.311111 
L 397.471704 -730.311111 
L 403.891061 -730.311111 
L 410.310417 -730.311111 
L 416.729773 -730.311111 
L 423.149129 -730.311111 
L 429.568485 -730.311111 
L 435.987841 -730.311111 
L 442.407198 -730.311111 
L 448.826554 -730.311111 
L 455.24591 -730.311111 
L 461.665266 -730.311111 
L 468.084622 -730.311111 
L 474.503979 -730.311111 
L 480.923335 -730.311111 
L 487.342691 -730.311111 
L 493.762047 -730.311111 
L 500.181403 -730.311111 
L 506.600759 -730.311111 
L 513.020116 -730.311111 
L 519.439472 -730.311111 
L 525.858828 -730.311111 
L 532.278184 -730.311111 
L 538.69754 -730.311111 
L 545.116897 -730.311111 
L 551.536253 -730.311111 
L 557.955609 -730.311111 
L 564.374965 -730.311111 
L 570.794321 -730.311111 
L 577.213677 -730.311111 
L 583.633034 -730.311111 
L 590.05239 -730.311111 
L 596.471746 -730.311111 
L 602.891102 -730.311111 
L 609.310458 -730.311111 
L 615.729815 -730.311111 
L 622.149171 -730.311111 
L 628.568527 -730.311111 
L 634.987883 -730.311111 
L 641.407239 -730.311111 
L 647.826596 -730.311111 
L 654.245952 -730.311111 
L 660.665308 -730.311111 
L 667.084664 -730.311111 
L 673.50402 -730.311111 
L 679.923376 -730.311111 
L 686.342733 -730.311111 
L 692.762089 -730.311111 
L 699.181445 -730.311111 
L 705.600801 -730.311111 
L 712.020157 -730.311111 
L 718.439514 -730.311111 
L 724.85887 -730.311111 
L 731.278226 -730.311111 
L 737.697582 -730.311111 
L 744.116938 -730.311111 
L 750.536294 -730.311111 
L 756.955651 -730.311111 
L 763.375007 -730.311111 
L 769.794363 -730.311111 
L 776.213719 -730.311111 
L 782.633075 -730.311111 
L 789.052432 -730.311111 
L 795.471788 -730.311111 
L 801.891144 -730.311111 
L 808.3105 -730.311111 
L 814.729856 -730.311111 
L 821.149213 -730.311111 
L 827.568569 -730.311111 
L 833.987925 -730.311111 
L 840.407281 -730.311111 
L 846.826637 -730.311111 
L 853.245993 -730.311111 
L 859.66535 -730.311111 
L 866.084706 -730.311111 
L 872.504062 -730.311111 
L 878.923418 -730.311111 
L 885.342774 -730.311111 
L 891.762131 -730.311111 
L 898.181487 -730.311111 
L 904.600843 -730.311111 
L 911.020199 -730.311111 
L 917.439555 -730.311111 
L 923.858911 -730.311111 
L 923.858911 -875.163054 
L 923.858911 -875.163054 
L 917.439555 -875.132443 
L 911.020199 -875.132443 
L 904.600843 -875.132443 
L 898.181487 -875.132443 
L 891.762131 -875.132443 
L 885.342774 -875.132443 
L 878.923418 -875.132443 
L 872.504062 -875.101831 
L 866.084706 -875.101831 
L 859.66535 -875.101831 
L 853.245993 -875.040609 
L 846.826637 -875.040609 
L 840.407281 -875.040609 
L 833.987925 -874.948776 
L 827.568569 -874.826331 
L 821.149213 -874.581442 
L 814.729856 -874.428386 
L 808.3105 -874.091664 
L 801.891144 -873.877386 
L 795.471788 -873.663108 
L 789.052432 -873.387607 
L 782.633075 -872.867218 
L 776.213719 -872.438662 
L 769.794363 -871.612161 
L 763.375007 -871.122382 
L 756.955651 -870.26527 
L 750.536294 -869.561214 
L 744.116938 -868.581657 
L 737.697582 -867.418434 
L 731.278226 -866.347044 
L 724.85887 -865.336876 
L 718.439514 -864.143041 
L 712.020157 -861.908428 
L 705.600801 -859.82687 
L 699.181445 -857.377978 
L 692.762089 -854.837253 
L 686.342733 -852.296528 
L 679.923376 -850.21497 
L 673.50402 -847.8273 
L 667.084664 -845.562076 
L 660.665308 -843.021351 
L 654.245952 -840.572459 
L 647.826596 -838.399067 
L 641.407239 -835.031841 
L 634.987883 -831.542171 
L 628.568527 -828.695334 
L 622.149171 -826.338276 
L 615.729815 -823.613884 
L 609.310458 -820.767047 
L 602.891102 -817.981433 
L 596.471746 -815.50193 
L 590.05239 -812.991816 
L 583.633034 -810.542925 
L 577.213677 -808.308311 
L 570.794321 -805.430863 
L 564.374965 -802.737082 
L 557.955609 -800.073913 
L 551.536253 -797.625021 
L 545.116897 -795.359796 
L 538.69754 -792.880293 
L 532.278184 -789.972235 
L 525.858828 -787.798843 
L 519.439472 -786.268286 
L 513.020116 -784.737729 
L 506.600759 -782.809226 
L 500.181403 -781.584781 
L 493.762047 -780.819502 
L 487.342691 -780.115446 
L 480.923335 -779.319556 
L 474.503979 -778.646111 
L 468.084622 -778.37061 
L 461.665266 -777.850221 
L 455.24591 -777.452276 
L 448.826554 -776.778831 
L 442.407198 -776.350275 
L 435.987841 -775.799274 
L 429.568485 -775.370718 
L 423.149129 -774.482995 
L 416.729773 -773.80955 
L 410.310417 -772.952437 
L 403.891061 -772.095325 
L 397.471704 -770.840268 
L 391.052348 -768.177099 
L 384.632992 -764.350705 
L 378.213636 -756.697919 
L 371.79428 -748.310465 
L 365.374923 -742.280069 
L 358.955567 -739.402621 
L 352.536211 -737.963898 
L 346.116855 -736.95373 
L 339.697499 -736.341507 
L 333.278142 -735.300728 
L 326.858786 -734.627283 
L 320.43943 -733.678337 
L 314.020074 -732.576336 
L 307.600718 -731.566168 
L 301.181362 -730.953945 
L 294.762005 -730.433556 
L 288.342649 -730.341722 
z
" id="mc0125e75d2" style="stroke:#dd8452;stroke-opacity:0.3;"/>
    </defs>
    <g clip-path="url(#p81f59b3499)">
     <use style="fill:#dd8452;fill-opacity:0.3;stroke:#dd8452;stroke-opacity:0.3;" x="0" xlink:href="#mc0125e75d2" y="1440"/>
    </g>
   </g>
   <g id="line2d_13">
    <path clip-path="url(#p81f59b3499)" d="M 288.342649 709.658278 
L 294.762005 709.566444 
L 301.181362 709.046055 
L 307.600718 708.433832 
L 314.020074 707.423664 
L 320.43943 706.321663 
L 326.858786 705.372717 
L 333.278142 704.699272 
L 339.697499 703.658493 
L 346.116855 703.04627 
L 352.536211 702.036102 
L 358.955567 700.597379 
L 365.374923 697.719931 
L 371.79428 691.689535 
L 378.213636 683.302081 
L 384.632992 675.649295 
L 391.052348 671.822901 
L 397.471704 669.159732 
L 403.891061 667.904675 
L 410.310417 667.047563 
L 416.729773 666.19045 
L 423.149129 665.517005 
L 429.568485 664.629282 
L 435.987841 664.200726 
L 442.407198 663.649725 
L 448.826554 663.221169 
L 455.24591 662.547724 
L 461.665266 662.149779 
L 468.084622 661.62939 
L 474.503979 661.353889 
L 480.923335 660.680444 
L 487.342691 659.884554 
L 493.762047 659.180498 
L 500.181403 658.415219 
L 506.600759 657.190774 
L 513.020116 655.262271 
L 519.439472 653.731714 
L 525.858828 652.201157 
L 532.278184 650.027765 
L 538.69754 647.119707 
L 545.116897 644.640204 
L 551.536253 642.374979 
L 557.955609 639.926087 
L 564.374965 637.262918 
L 570.794321 634.569137 
L 577.213677 631.691689 
L 583.633034 629.457075 
L 590.05239 627.008184 
L 596.471746 624.49807 
L 602.891102 622.018567 
L 609.310458 619.232953 
L 615.729815 616.386116 
L 622.149171 613.661724 
L 628.568527 611.304666 
L 634.987883 608.457829 
L 641.407239 604.968159 
L 647.826596 601.600933 
L 654.245952 599.427541 
L 660.665308 596.978649 
L 667.084664 594.437924 
L 673.50402 592.1727 
L 679.923376 589.78503 
L 686.342733 587.703472 
L 692.762089 585.162747 
L 699.181445 582.622022 
L 705.600801 580.17313 
L 712.020157 578.091572 
L 718.439514 575.856959 
L 724.85887 574.663124 
L 731.278226 573.652956 
L 737.697582 572.581566 
L 744.116938 571.418343 
L 750.536294 570.438786 
L 756.955651 569.73473 
L 763.375007 568.877618 
L 769.794363 568.387839 
L 776.213719 567.561338 
L 782.633075 567.132782 
L 789.052432 566.612393 
L 795.471788 566.336892 
L 801.891144 566.122614 
L 808.3105 565.908336 
L 814.729856 565.571614 
L 821.149213 565.418558 
L 827.568569 565.173669 
L 833.987925 565.051224 
L 840.407281 564.959391 
L 846.826637 564.959391 
L 853.245993 564.959391 
L 859.66535 564.898169 
L 866.084706 564.898169 
L 872.504062 564.898169 
L 878.923418 564.867557 
L 885.342774 564.867557 
L 891.762131 564.867557 
L 898.181487 564.867557 
L 904.600843 564.867557 
L 911.020199 564.867557 
L 917.439555 564.867557 
L 923.858911 564.836946 
" style="fill:none;stroke:#dd8452;stroke-linecap:round;stroke-width:4;"/>
   </g>
   <g id="line2d_14">
    <defs>
     <path d="M -6 6 
L 6 6 
L 6 -6 
L -6 -6 
z
" id="m9623ca8cbb" style="stroke:#dd8452;stroke-linejoin:miter;"/>
    </defs>
    <g clip-path="url(#p81f59b3499)">
     <use style="fill:#dd8452;stroke:#dd8452;stroke-linejoin:miter;" x="294.762005" xlink:href="#m9623ca8cbb" y="602.311111"/>
    </g>
   </g>
   <g id="patch_3">
    <path d="M 270 709.688889 
L 270 172.8 
" style="fill:none;stroke:#000000;stroke-linecap:square;stroke-linejoin:miter;stroke-width:2;"/>
   </g>
   <g id="patch_4">
    <path d="M 818.852459 709.688889 
L 818.852459 172.8 
" style="fill:none;stroke:#000000;stroke-linecap:square;stroke-linejoin:miter;stroke-width:2;"/>
   </g>
   <g id="patch_5">
    <path d="M 270 709.688889 
L 818.852459 709.688889 
" style="fill:none;stroke:#000000;stroke-linecap:square;stroke-linejoin:miter;stroke-width:2;"/>
   </g>
   <g id="patch_6">
    <path d="M 270 172.8 
L 818.852459 172.8 
" style="fill:none;stroke:#000000;stroke-linecap:square;stroke-linejoin:miter;stroke-width:2;"/>
   </g>
   <g id="text_13">
    <text style="font-family:Arial;font-size:25px;font-style:normal;font-weight:semibold;text-anchor:end;" transform="rotate(-0, 807.87541, 548.622222)" x="807.87541" y="548.622222">n = 17539</text>
   </g>
   <g id="text_14">
    <text style="font-family:Arial;font-size:30px;font-style:normal;font-weight:semibold;text-anchor:end;" transform="rotate(-0, 807.87541, 226.488889)" x="807.87541" y="226.488889">2FX7: HIV 4e10 (H)</text>
   </g>
   <g id="line2d_15">
    <path clip-path="url(#p81f59b3499)" d="M 294.762005 709.688889 
L 294.762005 602.311111 
" style="fill:none;stroke:#dd8452;stroke-linecap:round;stroke-width:4;"/>
   </g>
  </g>
  <g id="axes_2">
   <g id="patch_7">
    <path d="M 832.57377 709.688889 
L 1381.42623 709.688889 
L 1381.42623 172.8 
L 832.57377 172.8 
z
" style="fill:#ffffff;"/>
   </g>
   <g id="matplotlib.axis_3">
    <g id="xtick_7">
     <g id="line2d_16">
      <path clip-path="url(#p7c10aabf53)" d="M 832.57377 709.688889 
L 832.57377 172.8 
" style="fill:none;stroke:#cccccc;stroke-linecap:round;"/>
     </g>
    </g>
    <g id="xtick_8">
     <g id="line2d_17">
      <path clip-path="url(#p7c10aabf53)" d="M 942.344262 709.688889 
L 942.344262 172.8 
" style="fill:none;stroke:#cccccc;stroke-linecap:round;"/>
     </g>
    </g>
    <g id="xtick_9">
     <g id="line2d_18">
      <path clip-path="url(#p7c10aabf53)" d="M 1052.114754 709.688889 
L 1052.114754 172.8 
" style="fill:none;stroke:#cccccc;stroke-linecap:round;"/>
     </g>
    </g>
    <g id="xtick_10">
     <g id="line2d_19">
      <path clip-path="url(#p7c10aabf53)" d="M 1161.885246 709.688889 
L 1161.885246 172.8 
" style="fill:none;stroke:#cccccc;stroke-linecap:round;"/>
     </g>
    </g>
    <g id="xtick_11">
     <g id="line2d_20">
      <path clip-path="url(#p7c10aabf53)" d="M 1271.655738 709.688889 
L 1271.655738 172.8 
" style="fill:none;stroke:#cccccc;stroke-linecap:round;"/>
     </g>
    </g>
    <g id="xtick_12">
     <g id="line2d_21">
      <path clip-path="url(#p7c10aabf53)" d="M 1381.42623 709.688889 
L 1381.42623 172.8 
" style="fill:none;stroke:#cccccc;stroke-linecap:round;"/>
     </g>
    </g>
   </g>
   <g id="matplotlib.axis_4">
    <g id="ytick_7">
     <g id="line2d_22">
      <path clip-path="url(#p7c10aabf53)" d="M 832.57377 709.688889 
L 1381.42623 709.688889 
" style="fill:none;stroke:#cccccc;stroke-linecap:round;"/>
     </g>
    </g>
    <g id="ytick_8">
     <g id="line2d_23">
      <path clip-path="url(#p7c10aabf53)" d="M 832.57377 602.311111 
L 1381.42623 602.311111 
" style="fill:none;stroke:#cccccc;stroke-linecap:round;"/>
     </g>
    </g>
    <g id="ytick_9">
     <g id="line2d_24">
      <path clip-path="url(#p7c10aabf53)" d="M 832.57377 494.933333 
L 1381.42623 494.933333 
" style="fill:none;stroke:#cccccc;stroke-linecap:round;"/>
     </g>
    </g>
    <g id="ytick_10">
     <g id="line2d_25">
      <path clip-path="url(#p7c10aabf53)" d="M 832.57377 387.555556 
L 1381.42623 387.555556 
" style="fill:none;stroke:#cccccc;stroke-linecap:round;"/>
     </g>
    </g>
    <g id="ytick_11">
     <g id="line2d_26">
      <path clip-path="url(#p7c10aabf53)" d="M 832.57377 280.177778 
L 1381.42623 280.177778 
" style="fill:none;stroke:#cccccc;stroke-linecap:round;"/>
     </g>
    </g>
    <g id="ytick_12">
     <g id="line2d_27">
      <path clip-path="url(#p7c10aabf53)" d="M 832.57377 172.8 
L 1381.42623 172.8 
" style="fill:none;stroke:#cccccc;stroke-linecap:round;"/>
     </g>
    </g>
   </g>
   <g id="PolyCollection_2">
    <defs>
     <path d="M 913.053104 -730.341722 
L 913.053104 -730.311111 
L 918.890832 -730.311111 
L 924.72856 -730.311111 
L 930.566288 -730.311111 
L 936.404015 -730.311111 
L 942.241743 -730.311111 
L 948.079471 -730.311111 
L 953.917199 -730.311111 
L 959.754927 -730.311111 
L 965.592655 -730.311111 
L 971.430382 -730.311111 
L 977.26811 -730.311111 
L 983.105838 -730.311111 
L 988.943566 -730.311111 
L 994.781294 -730.311111 
L 1000.619021 -730.311111 
L 1006.456749 -730.311111 
L 1012.294477 -730.311111 
L 1018.132205 -730.311111 
L 1023.969933 -730.311111 
L 1029.80766 -730.311111 
L 1035.645388 -730.311111 
L 1041.483116 -730.311111 
L 1047.320844 -730.311111 
L 1053.158572 -730.311111 
L 1058.996299 -730.311111 
L 1064.834027 -730.311111 
L 1070.671755 -730.311111 
L 1076.509483 -730.311111 
L 1082.347211 -730.311111 
L 1088.184939 -730.311111 
L 1094.022666 -730.311111 
L 1099.860394 -730.311111 
L 1105.698122 -730.311111 
L 1111.53585 -730.311111 
L 1117.373578 -730.311111 
L 1123.211305 -730.311111 
L 1129.049033 -730.311111 
L 1134.886761 -730.311111 
L 1140.724489 -730.311111 
L 1146.562217 -730.311111 
L 1152.399944 -730.311111 
L 1158.237672 -730.311111 
L 1164.0754 -730.311111 
L 1169.913128 -730.311111 
L 1175.750856 -730.311111 
L 1181.588583 -730.311111 
L 1187.426311 -730.311111 
L 1193.264039 -730.311111 
L 1199.101767 -730.311111 
L 1204.939495 -730.311111 
L 1210.777223 -730.311111 
L 1216.61495 -730.311111 
L 1222.452678 -730.311111 
L 1228.290406 -730.311111 
L 1234.128134 -730.311111 
L 1239.965862 -730.311111 
L 1245.803589 -730.311111 
L 1251.641317 -730.311111 
L 1257.479045 -730.311111 
L 1263.316773 -730.311111 
L 1269.154501 -730.311111 
L 1274.992228 -730.311111 
L 1280.829956 -730.311111 
L 1286.667684 -730.311111 
L 1292.505412 -730.311111 
L 1298.34314 -730.311111 
L 1304.180867 -730.311111 
L 1310.018595 -730.311111 
L 1315.856323 -730.311111 
L 1321.694051 -730.311111 
L 1327.531779 -730.311111 
L 1333.369507 -730.311111 
L 1339.207234 -730.311111 
L 1345.044962 -730.311111 
L 1350.88269 -730.311111 
L 1356.720418 -730.311111 
L 1362.558146 -730.311111 
L 1368.395873 -730.311111 
L 1374.233601 -730.311111 
L 1380.071329 -730.311111 
L 1385.909057 -730.311111 
L 1391.746785 -730.311111 
L 1397.584512 -730.311111 
L 1403.42224 -730.311111 
L 1409.259968 -730.311111 
L 1415.097696 -730.311111 
L 1420.935424 -730.311111 
L 1426.773151 -730.311111 
L 1432.610879 -730.311111 
L 1438.448607 -730.311111 
L 1444.286335 -730.311111 
L 1450.124063 -730.311111 
L 1455.961791 -730.311111 
L 1461.799518 -730.311111 
L 1467.637246 -730.311111 
L 1473.474974 -730.311111 
L 1479.312702 -730.311111 
L 1485.15043 -730.311111 
L 1490.988157 -730.311111 
L 1490.988157 -849.970081 
L 1490.988157 -849.970081 
L 1485.15043 -848.470134 
L 1479.312702 -847.2763 
L 1473.474974 -845.868187 
L 1467.637246 -844.429463 
L 1461.799518 -842.592794 
L 1455.961791 -841.460182 
L 1450.124063 -840.021458 
L 1444.286335 -838.490901 
L 1438.448607 -837.297066 
L 1432.610879 -835.766509 
L 1426.773151 -833.838007 
L 1420.935424 -832.001338 
L 1415.097696 -829.950391 
L 1409.259968 -828.083111 
L 1403.42224 -826.307665 
L 1397.584512 -824.470996 
L 1391.746785 -822.205771 
L 1385.909057 -820.062991 
L 1380.071329 -817.522266 
L 1374.233601 -814.95093 
L 1368.395873 -812.502038 
L 1362.558146 -810.053146 
L 1356.720418 -807.726699 
L 1350.88269 -804.665585 
L 1345.044962 -801.512637 
L 1339.207234 -798.329077 
L 1333.369507 -795.145518 
L 1327.531779 -792.390515 
L 1321.694051 -789.206956 
L 1315.856323 -786.207064 
L 1310.018595 -783.513283 
L 1304.180867 -780.635835 
L 1298.34314 -777.758387 
L 1292.505412 -774.850328 
L 1286.667684 -772.248381 
L 1280.829956 -769.860712 
L 1274.992228 -767.166931 
L 1269.154501 -764.564983 
L 1263.316773 -761.565091 
L 1257.479045 -758.993755 
L 1251.641317 -756.636697 
L 1245.803589 -754.493916 
L 1239.965862 -752.381747 
L 1234.128134 -750.789968 
L 1228.290406 -749.290022 
L 1222.452678 -747.545186 
L 1216.61495 -746.106462 
L 1210.777223 -744.453461 
L 1204.939495 -743.045348 
L 1199.101767 -741.667846 
L 1193.264039 -740.290345 
L 1187.426311 -739.433233 
L 1181.588583 -738.545509 
L 1175.750856 -737.657786 
L 1169.913128 -736.861896 
L 1164.0754 -736.219062 
L 1158.237672 -735.821117 
L 1152.399944 -735.423172 
L 1146.562217 -735.055839 
L 1140.724489 -734.504838 
L 1134.886761 -733.923226 
L 1129.049033 -733.770171 
L 1123.211305 -733.555893 
L 1117.373578 -733.157948 
L 1111.53585 -732.729392 
L 1105.698122 -732.484502 
L 1099.860394 -732.270224 
L 1094.022666 -732.117169 
L 1088.184939 -731.933502 
L 1082.347211 -731.780446 
L 1076.509483 -731.719224 
L 1070.671755 -731.62739 
L 1064.834027 -731.474335 
L 1058.996299 -731.321279 
L 1053.158572 -731.198834 
L 1047.320844 -731.168223 
L 1041.483116 -731.137612 
L 1035.645388 -731.07639 
L 1029.80766 -730.984556 
L 1023.969933 -730.831501 
L 1018.132205 -730.800889 
L 1012.294477 -730.739667 
L 1006.456749 -730.678445 
L 1000.619021 -730.647834 
L 994.781294 -730.617223 
L 988.943566 -730.617223 
L 983.105838 -730.586611 
L 977.26811 -730.556 
L 971.430382 -730.525389 
L 965.592655 -730.494778 
L 959.754927 -730.464167 
L 953.917199 -730.402945 
L 948.079471 -730.341722 
L 942.241743 -730.341722 
L 936.404015 -730.341722 
L 930.566288 -730.341722 
L 924.72856 -730.341722 
L 918.890832 -730.341722 
L 913.053104 -730.341722 
z
" id="m658b48fb72" style="stroke:#dd8452;stroke-opacity:0.3;"/>
    </defs>
    <g clip-path="url(#p7c10aabf53)">
     <use style="fill:#dd8452;fill-opacity:0.3;stroke:#dd8452;stroke-opacity:0.3;" x="0" xlink:href="#m658b48fb72" y="1440"/>
    </g>
   </g>
   <g id="line2d_28">
    <path clip-path="url(#p7c10aabf53)" d="M 913.053104 709.658278 
L 918.890832 709.658278 
L 924.72856 709.658278 
L 930.566288 709.658278 
L 936.404015 709.658278 
L 942.241743 709.658278 
L 948.079471 709.658278 
L 953.917199 709.597055 
L 959.754927 709.535833 
L 965.592655 709.505222 
L 971.430382 709.474611 
L 977.26811 709.444 
L 983.105838 709.413389 
L 988.943566 709.382777 
L 994.781294 709.382777 
L 1000.619021 709.352166 
L 1006.456749 709.321555 
L 1012.294477 709.260333 
L 1018.132205 709.199111 
L 1023.969933 709.168499 
L 1029.80766 709.015444 
L 1035.645388 708.92361 
L 1041.483116 708.862388 
L 1047.320844 708.831777 
L 1053.158572 708.801166 
L 1058.996299 708.678721 
L 1064.834027 708.525665 
L 1070.671755 708.37261 
L 1076.509483 708.280776 
L 1082.347211 708.219554 
L 1088.184939 708.066498 
L 1094.022666 707.882831 
L 1099.860394 707.729776 
L 1105.698122 707.515498 
L 1111.53585 707.270608 
L 1117.373578 706.842052 
L 1123.211305 706.444107 
L 1129.049033 706.229829 
L 1134.886761 706.076774 
L 1140.724489 705.495162 
L 1146.562217 704.944161 
L 1152.399944 704.576828 
L 1158.237672 704.178883 
L 1164.0754 703.780938 
L 1169.913128 703.138104 
L 1175.750856 702.342214 
L 1181.588583 701.454491 
L 1187.426311 700.566767 
L 1193.264039 699.709655 
L 1199.101767 698.332154 
L 1204.939495 696.954652 
L 1210.777223 695.546539 
L 1216.61495 693.893538 
L 1222.452678 692.454814 
L 1228.290406 690.709978 
L 1234.128134 689.210032 
L 1239.965862 687.618253 
L 1245.803589 685.506084 
L 1251.641317 683.363303 
L 1257.479045 681.006245 
L 1263.316773 678.434909 
L 1269.154501 675.435017 
L 1274.992228 672.833069 
L 1280.829956 670.139288 
L 1286.667684 667.751619 
L 1292.505412 665.149672 
L 1298.34314 662.241613 
L 1304.180867 659.364165 
L 1310.018595 656.486717 
L 1315.856323 653.792936 
L 1321.694051 650.793044 
L 1327.531779 647.609485 
L 1333.369507 644.854482 
L 1339.207234 641.670923 
L 1345.044962 638.487363 
L 1350.88269 635.334415 
L 1356.720418 632.273301 
L 1362.558146 629.946854 
L 1368.395873 627.497962 
L 1374.233601 625.04907 
L 1380.071329 622.477734 
L 1385.909057 619.937009 
L 1391.746785 617.794229 
L 1397.584512 615.529004 
L 1403.42224 613.692335 
L 1409.259968 611.916889 
L 1415.097696 610.049609 
L 1420.935424 607.998662 
L 1426.773151 606.161993 
L 1432.610879 604.233491 
L 1438.448607 602.702934 
L 1444.286335 601.509099 
L 1450.124063 599.978542 
L 1455.961791 598.539818 
L 1461.799518 597.407206 
L 1467.637246 595.570537 
L 1473.474974 594.131813 
L 1479.312702 592.7237 
L 1485.15043 591.529866 
L 1490.988157 590.029919 
" style="fill:none;stroke:#dd8452;stroke-linecap:round;stroke-width:4;"/>
   </g>
   <g id="line2d_29">
    <g clip-path="url(#p7c10aabf53)">
     <use style="fill:#dd8452;stroke:#dd8452;stroke-linejoin:miter;" x="988.943566" xlink:href="#m9623ca8cbb" y="602.311111"/>
    </g>
   </g>
   <g id="patch_8">
    <path d="M 832.57377 709.688889 
L 832.57377 172.8 
" style="fill:none;stroke:#000000;stroke-linecap:square;stroke-linejoin:miter;stroke-width:2;"/>
   </g>
   <g id="patch_9">
    <path d="M 1381.42623 709.688889 
L 1381.42623 172.8 
" style="fill:none;stroke:#000000;stroke-linecap:square;stroke-linejoin:miter;stroke-width:2;"/>
   </g>
   <g id="patch_10">
    <path d="M 832.57377 709.688889 
L 1381.42623 709.688889 
" style="fill:none;stroke:#000000;stroke-linecap:square;stroke-linejoin:miter;stroke-width:2;"/>
   </g>
   <g id="patch_11">
    <path d="M 832.57377 172.8 
L 1381.42623 172.8 
" style="fill:none;stroke:#000000;stroke-linecap:square;stroke-linejoin:miter;stroke-width:2;"/>
   </g>
   <g id="text_15">
    <text style="font-family:Arial;font-size:25px;font-style:normal;font-weight:semibold;text-anchor:end;" transform="rotate(-0, 1370.44918, 548.622222)" x="1370.44918" y="548.622222">n = 17539</text>
   </g>
   <g id="text_16">
    <text style="font-family:Arial;font-size:30px;font-style:normal;font-weight:semibold;text-anchor:end;" transform="rotate(-0, 1370.44918, 226.488889)" x="1370.44918" y="226.488889">3IXT: RSV mota (HLH)</text>
   </g>
   <g id="line2d_30">
    <path clip-path="url(#p7c10aabf53)" d="M 988.943566 709.688889 
L 988.943566 602.311111 
" style="fill:none;stroke:#dd8452;stroke-linecap:round;stroke-width:4;"/>
   </g>
  </g>
  <g id="axes_3">
   <g id="patch_12">
    <path d="M 1395.147541 709.688889 
L 1944 709.688889 
L 1944 172.8 
L 1395.147541 172.8 
z
" style="fill:#ffffff;"/>
   </g>
   <g id="matplotlib.axis_5">
    <g id="xtick_13">
     <g id="line2d_31">
      <path clip-path="url(#p9d47b40aa9)" d="M 1395.147541 709.688889 
L 1395.147541 172.8 
" style="fill:none;stroke:#cccccc;stroke-linecap:round;"/>
     </g>
    </g>
    <g id="xtick_14">
     <g id="line2d_32">
      <path clip-path="url(#p9d47b40aa9)" d="M 1504.918033 709.688889 
L 1504.918033 172.8 
" style="fill:none;stroke:#cccccc;stroke-linecap:round;"/>
     </g>
    </g>
    <g id="xtick_15">
     <g id="line2d_33">
      <path clip-path="url(#p9d47b40aa9)" d="M 1614.688525 709.688889 
L 1614.688525 172.8 
" style="fill:none;stroke:#cccccc;stroke-linecap:round;"/>
     </g>
    </g>
    <g id="xtick_16">
     <g id="line2d_34">
      <path clip-path="url(#p9d47b40aa9)" d="M 1724.459016 709.688889 
L 1724.459016 172.8 
" style="fill:none;stroke:#cccccc;stroke-linecap:round;"/>
     </g>
    </g>
    <g id="xtick_17">
     <g id="line2d_35">
      <path clip-path="url(#p9d47b40aa9)" d="M 1834.229508 709.688889 
L 1834.229508 172.8 
" style="fill:none;stroke:#cccccc;stroke-linecap:round;"/>
     </g>
    </g>
    <g id="xtick_18">
     <g id="line2d_36">
      <path clip-path="url(#p9d47b40aa9)" d="M 1944 709.688889 
L 1944 172.8 
" style="fill:none;stroke:#cccccc;stroke-linecap:round;"/>
     </g>
    </g>
   </g>
   <g id="matplotlib.axis_6">
    <g id="ytick_13">
     <g id="line2d_37">
      <path clip-path="url(#p9d47b40aa9)" d="M 1395.147541 709.688889 
L 1944 709.688889 
" style="fill:none;stroke:#cccccc;stroke-linecap:round;"/>
     </g>
    </g>
    <g id="ytick_14">
     <g id="line2d_38">
      <path clip-path="url(#p9d47b40aa9)" d="M 1395.147541 602.311111 
L 1944 602.311111 
" style="fill:none;stroke:#cccccc;stroke-linecap:round;"/>
     </g>
    </g>
    <g id="ytick_15">
     <g id="line2d_39">
      <path clip-path="url(#p9d47b40aa9)" d="M 1395.147541 494.933333 
L 1944 494.933333 
" style="fill:none;stroke:#cccccc;stroke-linecap:round;"/>
     </g>
    </g>
    <g id="ytick_16">
     <g id="line2d_40">
      <path clip-path="url(#p9d47b40aa9)" d="M 1395.147541 387.555556 
L 1944 387.555556 
" style="fill:none;stroke:#cccccc;stroke-linecap:round;"/>
     </g>
    </g>
    <g id="ytick_17">
     <g id="line2d_41">
      <path clip-path="url(#p9d47b40aa9)" d="M 1395.147541 280.177778 
L 1944 280.177778 
" style="fill:none;stroke:#cccccc;stroke-linecap:round;"/>
     </g>
    </g>
    <g id="ytick_18">
     <g id="line2d_42">
      <path clip-path="url(#p9d47b40aa9)" d="M 1395.147541 172.8 
L 1944 172.8 
" style="fill:none;stroke:#cccccc;stroke-linecap:round;"/>
     </g>
    </g>
   </g>
   <g id="PolyCollection_3">
    <defs>
     <path d="M 1543.590177 -730.341722 
L 1543.590177 -730.311111 
L 1548.741518 -730.311111 
L 1553.892858 -730.311111 
L 1559.044199 -730.311111 
L 1564.19554 -730.311111 
L 1569.34688 -730.311111 
L 1574.498221 -730.311111 
L 1579.649562 -730.311111 
L 1584.800903 -730.311111 
L 1589.952243 -730.311111 
L 1595.103584 -730.311111 
L 1600.254925 -730.311111 
L 1605.406265 -730.311111 
L 1610.557606 -730.311111 
L 1615.708947 -730.311111 
L 1620.860287 -730.311111 
L 1626.011628 -730.311111 
L 1631.162969 -730.311111 
L 1636.314309 -730.311111 
L 1641.46565 -730.311111 
L 1646.616991 -730.311111 
L 1651.768331 -730.311111 
L 1656.919672 -730.311111 
L 1662.071013 -730.311111 
L 1667.222354 -730.311111 
L 1672.373694 -730.311111 
L 1677.525035 -730.311111 
L 1682.676376 -730.311111 
L 1687.827716 -730.311111 
L 1692.979057 -730.311111 
L 1698.130398 -730.311111 
L 1703.281738 -730.311111 
L 1708.433079 -730.311111 
L 1713.58442 -730.311111 
L 1718.73576 -730.311111 
L 1723.887101 -730.311111 
L 1729.038442 -730.311111 
L 1734.189782 -730.311111 
L 1739.341123 -730.311111 
L 1744.492464 -730.311111 
L 1749.643804 -730.311111 
L 1754.795145 -730.311111 
L 1759.946486 -730.311111 
L 1765.097827 -730.311111 
L 1770.249167 -730.311111 
L 1775.400508 -730.311111 
L 1780.551849 -730.311111 
L 1785.703189 -730.311111 
L 1790.85453 -730.311111 
L 1796.005871 -730.311111 
L 1801.157211 -730.311111 
L 1806.308552 -730.311111 
L 1811.459893 -730.311111 
L 1816.611233 -730.311111 
L 1821.762574 -730.311111 
L 1826.913915 -730.311111 
L 1832.065255 -730.311111 
L 1837.216596 -730.311111 
L 1842.367937 -730.311111 
L 1847.519277 -730.311111 
L 1852.670618 -730.311111 
L 1857.821959 -730.311111 
L 1862.9733 -730.311111 
L 1868.12464 -730.311111 
L 1873.275981 -730.311111 
L 1878.427322 -730.311111 
L 1883.578662 -730.311111 
L 1888.730003 -730.311111 
L 1893.881344 -730.311111 
L 1899.032684 -730.311111 
L 1904.184025 -730.311111 
L 1909.335366 -730.311111 
L 1914.486706 -730.311111 
L 1919.638047 -730.311111 
L 1924.789388 -730.311111 
L 1929.940728 -730.311111 
L 1935.092069 -730.311111 
L 1940.24341 -730.311111 
L 1945.394751 -730.311111 
L 1950.546091 -730.311111 
L 1955.697432 -730.311111 
L 1960.848773 -730.311111 
L 1966.000113 -730.311111 
L 1971.151454 -730.311111 
L 1976.302795 -730.311111 
L 1981.454135 -730.311111 
L 1986.605476 -730.311111 
L 1991.756817 -730.311111 
L 1996.908157 -730.311111 
L 2002.059498 -730.311111 
L 2007.210839 -730.311111 
L 2012.362179 -730.311111 
L 2017.51352 -730.311111 
L 2022.664861 -730.311111 
L 2027.816201 -730.311111 
L 2032.967542 -730.311111 
L 2038.118883 -730.311111 
L 2043.270224 -730.311111 
L 2048.421564 -730.311111 
L 2053.572905 -730.311111 
L 2053.572905 -852.112861 
L 2053.572905 -852.112861 
L 2048.421564 -851.684305 
L 2043.270224 -851.163915 
L 2038.118883 -850.735359 
L 2032.967542 -850.306803 
L 2027.816201 -849.755803 
L 2022.664861 -849.051746 
L 2017.51352 -848.317079 
L 2012.362179 -847.368133 
L 2007.210839 -846.602855 
L 2002.059498 -846.113076 
L 1996.908157 -845.194742 
L 1991.756817 -844.33763 
L 1986.605476 -843.419295 
L 1981.454135 -842.562183 
L 1976.302795 -841.429571 
L 1971.151454 -840.143903 
L 1966.000113 -838.980679 
L 1960.848773 -837.450122 
L 1955.697432 -836.103232 
L 1950.546091 -834.419619 
L 1945.394751 -832.491116 
L 1940.24341 -830.71567 
L 1935.092069 -828.970835 
L 1929.940728 -827.470888 
L 1924.789388 -825.052608 
L 1919.638047 -823.185328 
L 1914.486706 -820.460936 
L 1909.335366 -818.624267 
L 1904.184025 -816.052931 
L 1899.032684 -814.001984 
L 1893.881344 -811.675537 
L 1888.730003 -808.798089 
L 1883.578662 -806.257364 
L 1878.427322 -803.165638 
L 1873.275981 -800.502469 
L 1868.12464 -797.59441 
L 1862.9733 -795.053685 
L 1857.821959 -792.115015 
L 1852.670618 -788.900844 
L 1847.519277 -785.411174 
L 1842.367937 -782.472504 
L 1837.216596 -779.319556 
L 1832.065255 -776.533942 
L 1826.913915 -773.717716 
L 1821.762574 -771.054546 
L 1816.611233 -768.452599 
L 1811.459893 -766.248596 
L 1806.308552 -764.105816 
L 1801.157211 -761.779369 
L 1796.005871 -759.452922 
L 1790.85453 -757.52442 
L 1785.703189 -755.65714 
L 1780.551849 -753.300082 
L 1775.400508 -751.677691 
L 1770.249167 -750.024689 
L 1765.097827 -748.647188 
L 1759.946486 -747.208464 
L 1754.795145 -745.49424 
L 1749.643804 -744.484072 
L 1744.492464 -743.351459 
L 1739.341123 -742.371903 
L 1734.189782 -741.514791 
L 1729.038442 -740.535234 
L 1723.887101 -739.341399 
L 1718.73576 -738.790399 
L 1713.58442 -738.270009 
L 1708.433079 -737.412897 
L 1703.281738 -736.739452 
L 1698.130398 -735.759895 
L 1692.979057 -735.147672 
L 1687.827716 -734.719116 
L 1682.676376 -734.106893 
L 1677.525035 -733.525281 
L 1672.373694 -733.21917 
L 1667.222354 -732.882447 
L 1662.071013 -732.42328 
L 1656.919672 -732.055946 
L 1651.768331 -731.719224 
L 1646.616991 -731.566168 
L 1641.46565 -731.474335 
L 1636.314309 -731.321279 
L 1631.162969 -731.137612 
L 1626.011628 -730.984556 
L 1620.860287 -730.923334 
L 1615.708947 -730.770278 
L 1610.557606 -730.739667 
L 1605.406265 -730.617223 
L 1600.254925 -730.556 
L 1595.103584 -730.525389 
L 1589.952243 -730.525389 
L 1584.800903 -730.464167 
L 1579.649562 -730.464167 
L 1574.498221 -730.433556 
L 1569.34688 -730.372333 
L 1564.19554 -730.341722 
L 1559.044199 -730.341722 
L 1553.892858 -730.341722 
L 1548.741518 -730.341722 
L 1543.590177 -730.341722 
z
" id="mf7cc80b4f7" style="stroke:#dd8452;stroke-opacity:0.3;"/>
    </defs>
    <g clip-path="url(#p9d47b40aa9)">
     <use style="fill:#dd8452;fill-opacity:0.3;stroke:#dd8452;stroke-opacity:0.3;" x="0" xlink:href="#mf7cc80b4f7" y="1440"/>
    </g>
   </g>
   <g id="line2d_43">
    <path clip-path="url(#p9d47b40aa9)" d="M 1543.590177 709.658278 
L 1548.741518 709.658278 
L 1553.892858 709.658278 
L 1559.044199 709.658278 
L 1564.19554 709.658278 
L 1569.34688 709.627667 
L 1574.498221 709.566444 
L 1579.649562 709.535833 
L 1584.800903 709.535833 
L 1589.952243 709.474611 
L 1595.103584 709.474611 
L 1600.254925 709.444 
L 1605.406265 709.382777 
L 1610.557606 709.260333 
L 1615.708947 709.229722 
L 1620.860287 709.076666 
L 1626.011628 709.015444 
L 1631.162969 708.862388 
L 1636.314309 708.678721 
L 1641.46565 708.525665 
L 1646.616991 708.433832 
L 1651.768331 708.280776 
L 1656.919672 707.944054 
L 1662.071013 707.57672 
L 1667.222354 707.117553 
L 1672.373694 706.78083 
L 1677.525035 706.474719 
L 1682.676376 705.893107 
L 1687.827716 705.280884 
L 1692.979057 704.852328 
L 1698.130398 704.240105 
L 1703.281738 703.260548 
L 1708.433079 702.587103 
L 1713.58442 701.729991 
L 1718.73576 701.209601 
L 1723.887101 700.658601 
L 1729.038442 699.464766 
L 1734.189782 698.485209 
L 1739.341123 697.628097 
L 1744.492464 696.648541 
L 1749.643804 695.515928 
L 1754.795145 694.50576 
L 1759.946486 692.791536 
L 1765.097827 691.352812 
L 1770.249167 689.975311 
L 1775.400508 688.322309 
L 1780.551849 686.699918 
L 1785.703189 684.34286 
L 1790.85453 682.47558 
L 1796.005871 680.547078 
L 1801.157211 678.220631 
L 1806.308552 675.894184 
L 1811.459893 673.751404 
L 1816.611233 671.547401 
L 1821.762574 668.945454 
L 1826.913915 666.282284 
L 1832.065255 663.466058 
L 1837.216596 660.680444 
L 1842.367937 657.527496 
L 1847.519277 654.588826 
L 1852.670618 651.099156 
L 1857.821959 647.884985 
L 1862.9733 644.946315 
L 1868.12464 642.40559 
L 1873.275981 639.497531 
L 1878.427322 636.834362 
L 1883.578662 633.742636 
L 1888.730003 631.201911 
L 1893.881344 628.324463 
L 1899.032684 625.998016 
L 1904.184025 623.947069 
L 1909.335366 621.375733 
L 1914.486706 619.539064 
L 1919.638047 616.814672 
L 1924.789388 614.947392 
L 1929.940728 612.529112 
L 1935.092069 611.029165 
L 1940.24341 609.28433 
L 1945.394751 607.508884 
L 1950.546091 605.580381 
L 1955.697432 603.896768 
L 1960.848773 602.549878 
L 1966.000113 601.019321 
L 1971.151454 599.856097 
L 1976.302795 598.570429 
L 1981.454135 597.437817 
L 1986.605476 596.580705 
L 1991.756817 595.66237 
L 1996.908157 594.805258 
L 2002.059498 593.886924 
L 2007.210839 593.397145 
L 2012.362179 592.631867 
L 2017.51352 591.682921 
L 2022.664861 590.948254 
L 2027.816201 590.244197 
L 2032.967542 589.693197 
L 2038.118883 589.264641 
L 2043.270224 588.836085 
L 2048.421564 588.315695 
L 2053.572905 587.887139 
" style="fill:none;stroke:#dd8452;stroke-linecap:round;stroke-width:4;"/>
   </g>
   <g id="line2d_44">
    <g clip-path="url(#p9d47b40aa9)">
     <use style="fill:#dd8452;stroke:#dd8452;stroke-linejoin:miter;" x="1605.406265" xlink:href="#m9623ca8cbb" y="602.311111"/>
    </g>
   </g>
   <g id="patch_13">
    <path d="M 1395.147541 709.688889 
L 1395.147541 172.8 
" style="fill:none;stroke:#000000;stroke-linecap:square;stroke-linejoin:miter;stroke-width:2;"/>
   </g>
   <g id="patch_14">
    <path d="M 1944 709.688889 
L 1944 172.8 
" style="fill:none;stroke:#000000;stroke-linecap:square;stroke-linejoin:miter;stroke-width:2;"/>
   </g>
   <g id="patch_15">
    <path d="M 1395.147541 709.688889 
L 1944 709.688889 
" style="fill:none;stroke:#000000;stroke-linecap:square;stroke-linejoin:miter;stroke-width:2;"/>
   </g>
   <g id="patch_16">
    <path d="M 1395.147541 172.8 
L 1944 172.8 
" style="fill:none;stroke:#000000;stroke-linecap:square;stroke-linejoin:miter;stroke-width:2;"/>
   </g>
   <g id="text_17">
    <text style="font-family:Arial;font-size:25px;font-style:normal;font-weight:semibold;text-anchor:end;" transform="rotate(-0, 1933.022951, 548.622222)" x="1933.022951" y="548.622222">n = 17539</text>
   </g>
   <g id="text_18">
    <text style="font-family:Arial;font-size:30px;font-style:normal;font-weight:semibold;text-anchor:end;" transform="rotate(-0, 1933.022951, 226.488889)" x="1933.022951" y="226.488889">5TPN: RSV RSV90 (HLE)</text>
   </g>
   <g id="line2d_45">
    <path clip-path="url(#p9d47b40aa9)" d="M 1605.406265 709.688889 
L 1605.406265 602.311111 
" style="fill:none;stroke:#dd8452;stroke-linecap:round;stroke-width:4;"/>
   </g>
  </g>
  <g id="axes_4">
   <g id="patch_17">
    <path d="M 832.57377 1260 
L 1381.42623 1260 
L 1381.42623 723.111111 
L 832.57377 723.111111 
z
" style="fill:#ffffff;"/>
   </g>
   <g id="matplotlib.axis_7">
    <g id="xtick_19">
     <g id="line2d_46">
      <path clip-path="url(#pd6e4ea3dd0)" d="M 832.57377 1260 
L 832.57377 723.111111 
" style="fill:none;stroke:#cccccc;stroke-linecap:round;"/>
     </g>
     <g id="text_19">
      <text style="fill:#262626;font-family:Arial;font-size:33px;font-style:normal;font-weight:normal;text-anchor:middle;" transform="rotate(-0, 832.57377, 1293.120781)" x="832.57377" y="1293.120781">0</text>
     </g>
    </g>
    <g id="xtick_20">
     <g id="line2d_47">
      <path clip-path="url(#pd6e4ea3dd0)" d="M 942.344262 1260 
L 942.344262 723.111111 
" style="fill:none;stroke:#cccccc;stroke-linecap:round;"/>
     </g>
     <g id="text_20">
      <text style="fill:#262626;font-family:Arial;font-size:33px;font-style:normal;font-weight:normal;text-anchor:middle;" transform="rotate(-0, 942.344262, 1293.120781)" x="942.344262" y="1293.120781">1</text>
     </g>
    </g>
    <g id="xtick_21">
     <g id="line2d_48">
      <path clip-path="url(#pd6e4ea3dd0)" d="M 1052.114754 1260 
L 1052.114754 723.111111 
" style="fill:none;stroke:#cccccc;stroke-linecap:round;"/>
     </g>
     <g id="text_21">
      <text style="fill:#262626;font-family:Arial;font-size:33px;font-style:normal;font-weight:normal;text-anchor:middle;" transform="rotate(-0, 1052.114754, 1293.120781)" x="1052.114754" y="1293.120781">2</text>
     </g>
    </g>
    <g id="xtick_22">
     <g id="line2d_49">
      <path clip-path="url(#pd6e4ea3dd0)" d="M 1161.885246 1260 
L 1161.885246 723.111111 
" style="fill:none;stroke:#cccccc;stroke-linecap:round;"/>
     </g>
     <g id="text_22">
      <text style="fill:#262626;font-family:Arial;font-size:33px;font-style:normal;font-weight:normal;text-anchor:middle;" transform="rotate(-0, 1161.885246, 1293.120781)" x="1161.885246" y="1293.120781">3</text>
     </g>
    </g>
    <g id="xtick_23">
     <g id="line2d_50">
      <path clip-path="url(#pd6e4ea3dd0)" d="M 1271.655738 1260 
L 1271.655738 723.111111 
" style="fill:none;stroke:#cccccc;stroke-linecap:round;"/>
     </g>
     <g id="text_23">
      <text style="fill:#262626;font-family:Arial;font-size:33px;font-style:normal;font-weight:normal;text-anchor:middle;" transform="rotate(-0, 1271.655738, 1293.120781)" x="1271.655738" y="1293.120781">4</text>
     </g>
    </g>
    <g id="xtick_24">
     <g id="line2d_51">
      <path clip-path="url(#pd6e4ea3dd0)" d="M 1381.42623 1260 
L 1381.42623 723.111111 
" style="fill:none;stroke:#cccccc;stroke-linecap:round;"/>
     </g>
     <g id="text_24">
      <text style="fill:#262626;font-family:Arial;font-size:33px;font-style:normal;font-weight:normal;text-anchor:middle;" transform="rotate(-0, 1381.42623, 1293.120781)" x="1381.42623" y="1293.120781">5</text>
     </g>
    </g>
    <g id="text_25">
     <text style="fill:#262626;font-family:Arial;font-size:36px;font-style:normal;font-weight:normal;text-anchor:middle;" transform="rotate(-0, 1107, 1329.447656)" x="1107" y="1329.447656">RMSD</text>
    </g>
   </g>
   <g id="matplotlib.axis_8">
    <g id="ytick_19">
     <g id="line2d_52">
      <path clip-path="url(#pd6e4ea3dd0)" d="M 832.57377 1260 
L 1381.42623 1260 
" style="fill:none;stroke:#cccccc;stroke-linecap:round;"/>
     </g>
     <g id="text_26">
      <text style="fill:#262626;font-family:Arial;font-size:33px;font-style:normal;font-weight:normal;text-anchor:end;" transform="rotate(-0, 823.07377, 1271.810391)" x="823.07377" y="1271.810391">0.0</text>
     </g>
    </g>
    <g id="ytick_20">
     <g id="line2d_53">
      <path clip-path="url(#pd6e4ea3dd0)" d="M 832.57377 1152.622222 
L 1381.42623 1152.622222 
" style="fill:none;stroke:#cccccc;stroke-linecap:round;"/>
     </g>
     <g id="text_27">
      <text style="fill:#262626;font-family:Arial;font-size:33px;font-style:normal;font-weight:normal;text-anchor:end;" transform="rotate(-0, 823.07377, 1164.432613)" x="823.07377" y="1164.432613">0.2</text>
     </g>
    </g>
    <g id="ytick_21">
     <g id="line2d_54">
      <path clip-path="url(#pd6e4ea3dd0)" d="M 832.57377 1045.244444 
L 1381.42623 1045.244444 
" style="fill:none;stroke:#cccccc;stroke-linecap:round;"/>
     </g>
     <g id="text_28">
      <text style="fill:#262626;font-family:Arial;font-size:33px;font-style:normal;font-weight:normal;text-anchor:end;" transform="rotate(-0, 823.07377, 1057.054835)" x="823.07377" y="1057.054835">0.4</text>
     </g>
    </g>
    <g id="ytick_22">
     <g id="line2d_55">
      <path clip-path="url(#pd6e4ea3dd0)" d="M 832.57377 937.866667 
L 1381.42623 937.866667 
" style="fill:none;stroke:#cccccc;stroke-linecap:round;"/>
     </g>
     <g id="text_29">
      <text style="fill:#262626;font-family:Arial;font-size:33px;font-style:normal;font-weight:normal;text-anchor:end;" transform="rotate(-0, 823.07377, 949.677057)" x="823.07377" y="949.677057">0.6</text>
     </g>
    </g>
    <g id="ytick_23">
     <g id="line2d_56">
      <path clip-path="url(#pd6e4ea3dd0)" d="M 832.57377 830.488889 
L 1381.42623 830.488889 
" style="fill:none;stroke:#cccccc;stroke-linecap:round;"/>
     </g>
     <g id="text_30">
      <text style="fill:#262626;font-family:Arial;font-size:33px;font-style:normal;font-weight:normal;text-anchor:end;" transform="rotate(-0, 823.07377, 842.29928)" x="823.07377" y="842.29928">0.8</text>
     </g>
    </g>
    <g id="ytick_24">
     <g id="line2d_57">
      <path clip-path="url(#pd6e4ea3dd0)" d="M 832.57377 723.111111 
L 1381.42623 723.111111 
" style="fill:none;stroke:#cccccc;stroke-linecap:round;"/>
     </g>
    </g>
   </g>
   <g id="PolyCollection_4">
    <defs>
     <path d="M 926.776611 -180.030611 
L 926.776611 -180 
L 932.182331 -180 
L 937.588051 -180 
L 942.993771 -180 
L 948.399491 -180 
L 953.805211 -180 
L 959.210931 -180 
L 964.616651 -180 
L 970.022371 -180 
L 975.428091 -180 
L 980.833811 -180 
L 986.23953 -180 
L 991.64525 -180 
L 997.05097 -180 
L 1002.45669 -180 
L 1007.86241 -180 
L 1013.26813 -180 
L 1018.67385 -180 
L 1024.07957 -180 
L 1029.48529 -180 
L 1034.89101 -180 
L 1040.29673 -180 
L 1045.70245 -180 
L 1051.10817 -180 
L 1056.51389 -180 
L 1061.91961 -180 
L 1067.32533 -180 
L 1072.73105 -180 
L 1078.136769 -180 
L 1083.542489 -180 
L 1088.948209 -180 
L 1094.353929 -180 
L 1099.759649 -180 
L 1105.165369 -180 
L 1110.571089 -180 
L 1115.976809 -180 
L 1121.382529 -180 
L 1126.788249 -180 
L 1132.193969 -180 
L 1137.599689 -180 
L 1143.005409 -180 
L 1148.411129 -180 
L 1153.816849 -180 
L 1159.222569 -180 
L 1164.628289 -180 
L 1170.034008 -180 
L 1175.439728 -180 
L 1180.845448 -180 
L 1186.251168 -180 
L 1191.656888 -180 
L 1197.062608 -180 
L 1202.468328 -180 
L 1207.874048 -180 
L 1213.279768 -180 
L 1218.685488 -180 
L 1224.091208 -180 
L 1229.496928 -180 
L 1234.902648 -180 
L 1240.308368 -180 
L 1245.714088 -180 
L 1251.119808 -180 
L 1256.525528 -180 
L 1261.931247 -180 
L 1267.336967 -180 
L 1272.742687 -180 
L 1278.148407 -180 
L 1283.554127 -180 
L 1288.959847 -180 
L 1294.365567 -180 
L 1299.771287 -180 
L 1305.177007 -180 
L 1310.582727 -180 
L 1315.988447 -180 
L 1321.394167 -180 
L 1326.799887 -180 
L 1332.205607 -180 
L 1337.611327 -180 
L 1343.017047 -180 
L 1348.422766 -180 
L 1353.828486 -180 
L 1359.234206 -180 
L 1364.639926 -180 
L 1370.045646 -180 
L 1375.451366 -180 
L 1380.857086 -180 
L 1386.262806 -180 
L 1391.668526 -180 
L 1397.074246 -180 
L 1402.479966 -180 
L 1407.885686 -180 
L 1413.291406 -180 
L 1418.697126 -180 
L 1424.102846 -180 
L 1429.508566 -180 
L 1434.914286 -180 
L 1440.320005 -180 
L 1445.725725 -180 
L 1451.131445 -180 
L 1456.537165 -180 
L 1461.942885 -180 
L 1461.942885 -217.590487 
L 1461.942885 -217.590487 
L 1456.537165 -217.559876 
L 1451.131445 -217.529265 
L 1445.725725 -217.498654 
L 1440.320005 -217.498654 
L 1434.914286 -217.498654 
L 1429.508566 -217.498654 
L 1424.102846 -217.468043 
L 1418.697126 -217.468043 
L 1413.291406 -217.468043 
L 1407.885686 -217.468043 
L 1402.479966 -217.468043 
L 1397.074246 -217.40682 
L 1391.668526 -217.376209 
L 1386.262806 -217.376209 
L 1380.857086 -217.376209 
L 1375.451366 -217.345598 
L 1370.045646 -217.314987 
L 1364.639926 -217.314987 
L 1359.234206 -217.314987 
L 1353.828486 -217.284376 
L 1348.422766 -217.284376 
L 1343.017047 -217.284376 
L 1337.611327 -217.284376 
L 1332.205607 -217.253765 
L 1326.799887 -217.253765 
L 1321.394167 -217.253765 
L 1315.988447 -217.070098 
L 1310.582727 -216.947653 
L 1305.177007 -216.763986 
L 1299.771287 -216.610931 
L 1294.365567 -216.580319 
L 1288.959847 -216.519097 
L 1283.554127 -216.427264 
L 1278.148407 -216.33543 
L 1272.742687 -216.05993 
L 1267.336967 -215.937485 
L 1261.931247 -215.815041 
L 1256.525528 -215.661985 
L 1251.119808 -215.53954 
L 1245.714088 -215.355874 
L 1240.308368 -214.866095 
L 1234.902648 -214.345706 
L 1229.496928 -213.855927 
L 1224.091208 -213.549816 
L 1218.685488 -213.182482 
L 1213.279768 -212.84576 
L 1207.874048 -212.539648 
L 1202.468328 -212.141703 
L 1197.062608 -211.927425 
L 1191.656888 -211.468258 
L 1186.251168 -211.009091 
L 1180.845448 -210.366257 
L 1175.439728 -209.6622 
L 1170.034008 -209.1112 
L 1164.628289 -208.682644 
L 1159.222569 -208.162254 
L 1153.816849 -207.641865 
L 1148.411129 -207.274531 
L 1143.005409 -206.662308 
L 1137.599689 -205.65214 
L 1132.193969 -204.948084 
L 1126.788249 -204.244028 
L 1121.382529 -203.448138 
L 1115.976809 -202.866526 
L 1110.571089 -202.070636 
L 1105.165369 -201.213524 
L 1099.759649 -200.356412 
L 1094.353929 -199.040133 
L 1088.948209 -197.754465 
L 1083.542489 -196.407574 
L 1078.136769 -195.183128 
L 1072.73105 -193.744405 
L 1067.32533 -192.244458 
L 1061.91961 -190.254734 
L 1056.51389 -188.54051 
L 1051.10817 -187.316064 
L 1045.70245 -185.87734 
L 1040.29673 -184.744728 
L 1034.89101 -183.826393 
L 1029.48529 -183.21417 
L 1024.07957 -182.601947 
L 1018.67385 -182.204003 
L 1013.26813 -181.836669 
L 1007.86241 -181.499946 
L 1002.45669 -181.132612 
L 997.05097 -180.79589 
L 991.64525 -180.642834 
L 986.23953 -180.489778 
L 980.833811 -180.306111 
L 975.428091 -180.2755 
L 970.022371 -180.214278 
L 964.616651 -180.214278 
L 959.210931 -180.214278 
L 953.805211 -180.183667 
L 948.399491 -180.091833 
L 942.993771 -180.061222 
L 937.588051 -180.030611 
L 932.182331 -180.030611 
L 926.776611 -180.030611 
z
" id="mbad35226ae" style="stroke:#dd8452;stroke-opacity:0.3;"/>
    </defs>
    <g clip-path="url(#pd6e4ea3dd0)">
     <use style="fill:#dd8452;fill-opacity:0.3;stroke:#dd8452;stroke-opacity:0.3;" x="0" xlink:href="#mbad35226ae" y="1440"/>
    </g>
   </g>
   <g id="line2d_58">
    <path clip-path="url(#pd6e4ea3dd0)" d="M 926.776611 1259.969389 
L 932.182331 1259.969389 
L 937.588051 1259.969389 
L 942.993771 1259.938778 
L 948.399491 1259.908167 
L 953.805211 1259.816333 
L 959.210931 1259.785722 
L 964.616651 1259.785722 
L 970.022371 1259.785722 
L 975.428091 1259.7245 
L 980.833811 1259.693889 
L 986.23953 1259.510222 
L 991.64525 1259.357166 
L 997.05097 1259.20411 
L 1002.45669 1258.867388 
L 1007.86241 1258.500054 
L 1013.26813 1258.163331 
L 1018.67385 1257.795997 
L 1024.07957 1257.398053 
L 1029.48529 1256.78583 
L 1034.89101 1256.173607 
L 1040.29673 1255.255272 
L 1045.70245 1254.12266 
L 1051.10817 1252.683936 
L 1056.51389 1251.45949 
L 1061.91961 1249.745266 
L 1067.32533 1247.755542 
L 1072.73105 1246.255595 
L 1078.136769 1244.816872 
L 1083.542489 1243.592426 
L 1088.948209 1242.245535 
L 1094.353929 1240.959867 
L 1099.759649 1239.643588 
L 1105.165369 1238.786476 
L 1110.571089 1237.929364 
L 1115.976809 1237.133474 
L 1121.382529 1236.551862 
L 1126.788249 1235.755972 
L 1132.193969 1235.051916 
L 1137.599689 1234.34786 
L 1143.005409 1233.337692 
L 1148.411129 1232.725469 
L 1153.816849 1232.358135 
L 1159.222569 1231.837746 
L 1164.628289 1231.317356 
L 1170.034008 1230.8888 
L 1175.439728 1230.3378 
L 1180.845448 1229.633743 
L 1186.251168 1228.990909 
L 1191.656888 1228.531742 
L 1197.062608 1228.072575 
L 1202.468328 1227.858297 
L 1207.874048 1227.460352 
L 1213.279768 1227.15424 
L 1218.685488 1226.817518 
L 1224.091208 1226.450184 
L 1229.496928 1226.144073 
L 1234.902648 1225.654294 
L 1240.308368 1225.133905 
L 1245.714088 1224.644126 
L 1251.119808 1224.46046 
L 1256.525528 1224.338015 
L 1261.931247 1224.184959 
L 1267.336967 1224.062515 
L 1272.742687 1223.94007 
L 1278.148407 1223.66457 
L 1283.554127 1223.572736 
L 1288.959847 1223.480903 
L 1294.365567 1223.419681 
L 1299.771287 1223.389069 
L 1305.177007 1223.236014 
L 1310.582727 1223.052347 
L 1315.988447 1222.929902 
L 1321.394167 1222.746235 
L 1326.799887 1222.746235 
L 1332.205607 1222.746235 
L 1337.611327 1222.715624 
L 1343.017047 1222.715624 
L 1348.422766 1222.715624 
L 1353.828486 1222.715624 
L 1359.234206 1222.685013 
L 1364.639926 1222.685013 
L 1370.045646 1222.685013 
L 1375.451366 1222.654402 
L 1380.857086 1222.623791 
L 1386.262806 1222.623791 
L 1391.668526 1222.623791 
L 1397.074246 1222.59318 
L 1402.479966 1222.531957 
L 1407.885686 1222.531957 
L 1413.291406 1222.531957 
L 1418.697126 1222.531957 
L 1424.102846 1222.531957 
L 1429.508566 1222.501346 
L 1434.914286 1222.501346 
L 1440.320005 1222.501346 
L 1445.725725 1222.501346 
L 1451.131445 1222.470735 
L 1456.537165 1222.440124 
L 1461.942885 1222.409513 
" style="fill:none;stroke:#dd8452;stroke-linecap:round;stroke-width:4;"/>
   </g>
   <g id="line2d_59">
    <g clip-path="url(#pd6e4ea3dd0)">
     <use style="fill:#dd8452;stroke:#dd8452;stroke-linejoin:miter;" x="980.833811" xlink:href="#m9623ca8cbb" y="1152.622222"/>
    </g>
   </g>
   <g id="patch_18">
    <path d="M 832.57377 1260 
L 832.57377 723.111111 
" style="fill:none;stroke:#000000;stroke-linecap:square;stroke-linejoin:miter;stroke-width:2;"/>
   </g>
   <g id="patch_19">
    <path d="M 1381.42623 1260 
L 1381.42623 723.111111 
" style="fill:none;stroke:#000000;stroke-linecap:square;stroke-linejoin:miter;stroke-width:2;"/>
   </g>
   <g id="patch_20">
    <path d="M 832.57377 1260 
L 1381.42623 1260 
" style="fill:none;stroke:#000000;stroke-linecap:square;stroke-linejoin:miter;stroke-width:2;"/>
   </g>
   <g id="patch_21">
    <path d="M 832.57377 723.111111 
L 1381.42623 723.111111 
" style="fill:none;stroke:#000000;stroke-linecap:square;stroke-linejoin:miter;stroke-width:2;"/>
   </g>
   <g id="text_31">
    <text style="font-family:Arial;font-size:25px;font-style:normal;font-weight:semibold;text-anchor:end;" transform="rotate(-0, 1370.44918, 1098.933333)" x="1370.44918" y="1098.933333">n = 17539</text>
   </g>
   <g id="text_32">
    <text style="font-family:Arial;font-size:30px;font-style:normal;font-weight:semibold;text-anchor:end;" transform="rotate(-0, 1370.44918, 776.8)" x="1370.44918" y="776.8">3O41: RSV 101F (E)</text>
   </g>
   <g id="line2d_60">
    <path clip-path="url(#pd6e4ea3dd0)" d="M 980.833811 1260 
L 980.833811 1152.622222 
" style="fill:none;stroke:#dd8452;stroke-linecap:round;stroke-width:4;"/>
   </g>
  </g>
  <g id="axes_5">
   <g id="patch_22">
    <path d="M 1395.147541 1260 
L 1944 1260 
L 1944 723.111111 
L 1395.147541 723.111111 
z
" style="fill:#ffffff;"/>
   </g>
   <g id="matplotlib.axis_9">
    <g id="xtick_25">
     <g id="line2d_61">
      <path clip-path="url(#pb3c93f4a3d)" d="M 1395.147541 1260 
L 1395.147541 723.111111 
" style="fill:none;stroke:#cccccc;stroke-linecap:round;"/>
     </g>
     <g id="text_33">
      <text style="fill:#262626;font-family:Arial;font-size:33px;font-style:normal;font-weight:normal;text-anchor:middle;" transform="rotate(-0, 1395.147541, 1293.120781)" x="1395.147541" y="1293.120781">0</text>
     </g>
    </g>
    <g id="xtick_26">
     <g id="line2d_62">
      <path clip-path="url(#pb3c93f4a3d)" d="M 1504.918033 1260 
L 1504.918033 723.111111 
" style="fill:none;stroke:#cccccc;stroke-linecap:round;"/>
     </g>
     <g id="text_34">
      <text style="fill:#262626;font-family:Arial;font-size:33px;font-style:normal;font-weight:normal;text-anchor:middle;" transform="rotate(-0, 1504.918033, 1293.120781)" x="1504.918033" y="1293.120781">1</text>
     </g>
    </g>
    <g id="xtick_27">
     <g id="line2d_63">
      <path clip-path="url(#pb3c93f4a3d)" d="M 1614.688525 1260 
L 1614.688525 723.111111 
" style="fill:none;stroke:#cccccc;stroke-linecap:round;"/>
     </g>
     <g id="text_35">
      <text style="fill:#262626;font-family:Arial;font-size:33px;font-style:normal;font-weight:normal;text-anchor:middle;" transform="rotate(-0, 1614.688525, 1293.120781)" x="1614.688525" y="1293.120781">2</text>
     </g>
    </g>
    <g id="xtick_28">
     <g id="line2d_64">
      <path clip-path="url(#pb3c93f4a3d)" d="M 1724.459016 1260 
L 1724.459016 723.111111 
" style="fill:none;stroke:#cccccc;stroke-linecap:round;"/>
     </g>
     <g id="text_36">
      <text style="fill:#262626;font-family:Arial;font-size:33px;font-style:normal;font-weight:normal;text-anchor:middle;" transform="rotate(-0, 1724.459016, 1293.120781)" x="1724.459016" y="1293.120781">3</text>
     </g>
    </g>
    <g id="xtick_29">
     <g id="line2d_65">
      <path clip-path="url(#pb3c93f4a3d)" d="M 1834.229508 1260 
L 1834.229508 723.111111 
" style="fill:none;stroke:#cccccc;stroke-linecap:round;"/>
     </g>
     <g id="text_37">
      <text style="fill:#262626;font-family:Arial;font-size:33px;font-style:normal;font-weight:normal;text-anchor:middle;" transform="rotate(-0, 1834.229508, 1293.120781)" x="1834.229508" y="1293.120781">4</text>
     </g>
    </g>
    <g id="xtick_30">
     <g id="line2d_66">
      <path clip-path="url(#pb3c93f4a3d)" d="M 1944 1260 
L 1944 723.111111 
" style="fill:none;stroke:#cccccc;stroke-linecap:round;"/>
     </g>
     <g id="text_38">
      <text style="fill:#262626;font-family:Arial;font-size:33px;font-style:normal;font-weight:normal;text-anchor:middle;" transform="rotate(-0, 1944, 1293.120781)" x="1944" y="1293.120781">5</text>
     </g>
    </g>
    <g id="text_39">
     <text style="fill:#262626;font-family:Arial;font-size:36px;font-style:normal;font-weight:normal;text-anchor:middle;" transform="rotate(-0, 1669.57377, 1329.447656)" x="1669.57377" y="1329.447656">RMSD</text>
    </g>
   </g>
   <g id="matplotlib.axis_10">
    <g id="ytick_25">
     <g id="line2d_67">
      <path clip-path="url(#pb3c93f4a3d)" d="M 1395.147541 1260 
L 1944 1260 
" style="fill:none;stroke:#cccccc;stroke-linecap:round;"/>
     </g>
    </g>
    <g id="ytick_26">
     <g id="line2d_68">
      <path clip-path="url(#pb3c93f4a3d)" d="M 1395.147541 1152.622222 
L 1944 1152.622222 
" style="fill:none;stroke:#cccccc;stroke-linecap:round;"/>
     </g>
    </g>
    <g id="ytick_27">
     <g id="line2d_69">
      <path clip-path="url(#pb3c93f4a3d)" d="M 1395.147541 1045.244444 
L 1944 1045.244444 
" style="fill:none;stroke:#cccccc;stroke-linecap:round;"/>
     </g>
    </g>
    <g id="ytick_28">
     <g id="line2d_70">
      <path clip-path="url(#pb3c93f4a3d)" d="M 1395.147541 937.866667 
L 1944 937.866667 
" style="fill:none;stroke:#cccccc;stroke-linecap:round;"/>
     </g>
    </g>
    <g id="ytick_29">
     <g id="line2d_71">
      <path clip-path="url(#pb3c93f4a3d)" d="M 1395.147541 830.488889 
L 1944 830.488889 
" style="fill:none;stroke:#cccccc;stroke-linecap:round;"/>
     </g>
    </g>
    <g id="ytick_30">
     <g id="line2d_72">
      <path clip-path="url(#pb3c93f4a3d)" d="M 1395.147541 723.111111 
L 1944 723.111111 
" style="fill:none;stroke:#cccccc;stroke-linecap:round;"/>
     </g>
    </g>
   </g>
   <g id="PolyCollection_5">
    <defs>
     <path d="M 1721.034177 -180.030611 
L 1721.034177 -180 
L 1723.395795 -180 
L 1725.757413 -180 
L 1728.119031 -180 
L 1730.480649 -180 
L 1732.842266 -180 
L 1735.203884 -180 
L 1737.565502 -180 
L 1739.92712 -180 
L 1742.288738 -180 
L 1744.650356 -180 
L 1747.011974 -180 
L 1749.373592 -180 
L 1751.73521 -180 
L 1754.096827 -180 
L 1756.458445 -180 
L 1758.820063 -180 
L 1761.181681 -180 
L 1763.543299 -180 
L 1765.904917 -180 
L 1768.266535 -180 
L 1770.628153 -180 
L 1772.98977 -180 
L 1775.351388 -180 
L 1777.713006 -180 
L 1780.074624 -180 
L 1782.436242 -180 
L 1784.79786 -180 
L 1787.159478 -180 
L 1789.521096 -180 
L 1791.882714 -180 
L 1794.244331 -180 
L 1796.605949 -180 
L 1798.967567 -180 
L 1801.329185 -180 
L 1803.690803 -180 
L 1806.052421 -180 
L 1808.414039 -180 
L 1810.775657 -180 
L 1813.137275 -180 
L 1815.498892 -180 
L 1817.86051 -180 
L 1820.222128 -180 
L 1822.583746 -180 
L 1824.945364 -180 
L 1827.306982 -180 
L 1829.6686 -180 
L 1832.030218 -180 
L 1834.391835 -180 
L 1836.753453 -180 
L 1839.115071 -180 
L 1841.476689 -180 
L 1843.838307 -180 
L 1846.199925 -180 
L 1848.561543 -180 
L 1850.923161 -180 
L 1853.284779 -180 
L 1855.646396 -180 
L 1858.008014 -180 
L 1860.369632 -180 
L 1862.73125 -180 
L 1865.092868 -180 
L 1867.454486 -180 
L 1869.816104 -180 
L 1872.177722 -180 
L 1874.539339 -180 
L 1876.900957 -180 
L 1879.262575 -180 
L 1881.624193 -180 
L 1883.985811 -180 
L 1886.347429 -180 
L 1888.709047 -180 
L 1891.070665 -180 
L 1893.432283 -180 
L 1895.7939 -180 
L 1898.155518 -180 
L 1900.517136 -180 
L 1902.878754 -180 
L 1905.240372 -180 
L 1907.60199 -180 
L 1909.963608 -180 
L 1912.325226 -180 
L 1914.686844 -180 
L 1917.048461 -180 
L 1919.410079 -180 
L 1921.771697 -180 
L 1924.133315 -180 
L 1926.494933 -180 
L 1928.856551 -180 
L 1931.218169 -180 
L 1933.579787 -180 
L 1935.941404 -180 
L 1938.303022 -180 
L 1940.66464 -180 
L 1943.026258 -180 
L 1945.387876 -180 
L 1947.749494 -180 
L 1950.111112 -180 
L 1952.47273 -180 
L 1954.834348 -180 
L 1954.834348 -189.397622 
L 1954.834348 -189.397622 
L 1952.47273 -189.213955 
L 1950.111112 -189.060899 
L 1947.749494 -188.81601 
L 1945.387876 -188.632343 
L 1943.026258 -188.479287 
L 1940.66464 -188.111954 
L 1938.303022 -187.775231 
L 1935.941404 -187.683398 
L 1933.579787 -187.438508 
L 1931.218169 -187.254842 
L 1928.856551 -186.979341 
L 1926.494933 -186.918119 
L 1924.133315 -186.765063 
L 1921.771697 -186.642619 
L 1919.410079 -186.520174 
L 1917.048461 -186.305896 
L 1914.686844 -186.183451 
L 1912.325226 -186.030396 
L 1909.963608 -185.907951 
L 1907.60199 -185.663062 
L 1905.240372 -185.571229 
L 1902.878754 -185.234506 
L 1900.517136 -185.112061 
L 1898.155518 -184.928394 
L 1895.7939 -184.775339 
L 1893.432283 -184.469227 
L 1891.070665 -184.377394 
L 1888.709047 -184.254949 
L 1886.347429 -184.193727 
L 1883.985811 -183.979449 
L 1881.624193 -183.948838 
L 1879.262575 -183.703949 
L 1876.900957 -183.581504 
L 1874.539339 -183.520282 
L 1872.177722 -183.244781 
L 1869.816104 -183.122337 
L 1867.454486 -182.908059 
L 1865.092868 -182.755003 
L 1862.73125 -182.693781 
L 1860.369632 -182.693781 
L 1858.008014 -182.632559 
L 1855.646396 -182.479503 
L 1853.284779 -182.418281 
L 1850.923161 -182.234614 
L 1848.561543 -182.081558 
L 1846.199925 -182.081558 
L 1843.838307 -181.959113 
L 1841.476689 -181.86728 
L 1839.115071 -181.744835 
L 1836.753453 -181.622391 
L 1834.391835 -181.499946 
L 1832.030218 -181.285668 
L 1829.6686 -181.163224 
L 1827.306982 -181.163224 
L 1824.945364 -181.163224 
L 1822.583746 -181.163224 
L 1820.222128 -181.102001 
L 1817.86051 -181.040779 
L 1815.498892 -180.948946 
L 1813.137275 -180.918334 
L 1810.775657 -180.857112 
L 1808.414039 -180.826501 
L 1806.052421 -180.79589 
L 1803.690803 -180.765279 
L 1801.329185 -180.734668 
L 1798.967567 -180.734668 
L 1796.605949 -180.673445 
L 1794.244331 -180.673445 
L 1791.882714 -180.551001 
L 1789.521096 -180.459167 
L 1787.159478 -180.397945 
L 1784.79786 -180.367334 
L 1782.436242 -180.367334 
L 1780.074624 -180.306111 
L 1777.713006 -180.2755 
L 1775.351388 -180.2755 
L 1772.98977 -180.2755 
L 1770.628153 -180.2755 
L 1768.266535 -180.244889 
L 1765.904917 -180.244889 
L 1763.543299 -180.244889 
L 1761.181681 -180.244889 
L 1758.820063 -180.244889 
L 1756.458445 -180.214278 
L 1754.096827 -180.153056 
L 1751.73521 -180.153056 
L 1749.373592 -180.122445 
L 1747.011974 -180.122445 
L 1744.650356 -180.091833 
L 1742.288738 -180.091833 
L 1739.92712 -180.091833 
L 1737.565502 -180.061222 
L 1735.203884 -180.061222 
L 1732.842266 -180.061222 
L 1730.480649 -180.061222 
L 1728.119031 -180.030611 
L 1725.757413 -180.030611 
L 1723.395795 -180.030611 
L 1721.034177 -180.030611 
z
" id="m7d7ced0adc" style="stroke:#dd8452;stroke-opacity:0.3;"/>
    </defs>
    <g clip-path="url(#pb3c93f4a3d)">
     <use style="fill:#dd8452;fill-opacity:0.3;stroke:#dd8452;stroke-opacity:0.3;" x="0" xlink:href="#m7d7ced0adc" y="1440"/>
    </g>
   </g>
   <g id="line2d_73">
    <path clip-path="url(#pb3c93f4a3d)" d="M 1721.034177 1259.969389 
L 1723.395795 1259.969389 
L 1725.757413 1259.969389 
L 1728.119031 1259.969389 
L 1730.480649 1259.938778 
L 1732.842266 1259.938778 
L 1735.203884 1259.938778 
L 1737.565502 1259.938778 
L 1739.92712 1259.908167 
L 1742.288738 1259.908167 
L 1744.650356 1259.908167 
L 1747.011974 1259.877555 
L 1749.373592 1259.877555 
L 1751.73521 1259.846944 
L 1754.096827 1259.846944 
L 1756.458445 1259.785722 
L 1758.820063 1259.755111 
L 1761.181681 1259.755111 
L 1763.543299 1259.755111 
L 1765.904917 1259.755111 
L 1768.266535 1259.755111 
L 1770.628153 1259.7245 
L 1772.98977 1259.7245 
L 1775.351388 1259.7245 
L 1777.713006 1259.7245 
L 1780.074624 1259.693889 
L 1782.436242 1259.632666 
L 1784.79786 1259.632666 
L 1787.159478 1259.602055 
L 1789.521096 1259.540833 
L 1791.882714 1259.448999 
L 1794.244331 1259.326555 
L 1796.605949 1259.326555 
L 1798.967567 1259.265332 
L 1801.329185 1259.265332 
L 1803.690803 1259.234721 
L 1806.052421 1259.20411 
L 1808.414039 1259.173499 
L 1810.775657 1259.142888 
L 1813.137275 1259.081666 
L 1815.498892 1259.051054 
L 1817.86051 1258.959221 
L 1820.222128 1258.897999 
L 1822.583746 1258.836776 
L 1824.945364 1258.836776 
L 1827.306982 1258.836776 
L 1829.6686 1258.836776 
L 1832.030218 1258.714332 
L 1834.391835 1258.500054 
L 1836.753453 1258.377609 
L 1839.115071 1258.255165 
L 1841.476689 1258.13272 
L 1843.838307 1258.040887 
L 1846.199925 1257.918442 
L 1848.561543 1257.918442 
L 1850.923161 1257.765386 
L 1853.284779 1257.581719 
L 1855.646396 1257.520497 
L 1858.008014 1257.367441 
L 1860.369632 1257.306219 
L 1862.73125 1257.306219 
L 1865.092868 1257.244997 
L 1867.454486 1257.091941 
L 1869.816104 1256.877663 
L 1872.177722 1256.755219 
L 1874.539339 1256.479718 
L 1876.900957 1256.418496 
L 1879.262575 1256.296051 
L 1881.624193 1256.051162 
L 1883.985811 1256.020551 
L 1886.347429 1255.806273 
L 1888.709047 1255.745051 
L 1891.070665 1255.622606 
L 1893.432283 1255.530773 
L 1895.7939 1255.224661 
L 1898.155518 1255.071606 
L 1900.517136 1254.887939 
L 1902.878754 1254.765494 
L 1905.240372 1254.428771 
L 1907.60199 1254.336938 
L 1909.963608 1254.092049 
L 1912.325226 1253.969604 
L 1914.686844 1253.816549 
L 1917.048461 1253.694104 
L 1919.410079 1253.479826 
L 1921.771697 1253.357381 
L 1924.133315 1253.234937 
L 1926.494933 1253.081881 
L 1928.856551 1253.020659 
L 1931.218169 1252.745158 
L 1933.579787 1252.561492 
L 1935.941404 1252.316602 
L 1938.303022 1252.224769 
L 1940.66464 1251.888046 
L 1943.026258 1251.520713 
L 1945.387876 1251.367657 
L 1947.749494 1251.18399 
L 1950.111112 1250.939101 
L 1952.47273 1250.786045 
L 1954.834348 1250.602378 
" style="fill:none;stroke:#dd8452;stroke-linecap:round;stroke-width:4;"/>
   </g>
   <g id="line2d_74">
    <g clip-path="url(#pb3c93f4a3d)">
     <use style="fill:#dd8452;stroke:#dd8452;stroke-linejoin:miter;" x="1780.074624" xlink:href="#m9623ca8cbb" y="1152.622222"/>
    </g>
   </g>
   <g id="patch_23">
    <path d="M 1395.147541 1260 
L 1395.147541 723.111111 
" style="fill:none;stroke:#000000;stroke-linecap:square;stroke-linejoin:miter;stroke-width:2;"/>
   </g>
   <g id="patch_24">
    <path d="M 1944 1260 
L 1944 723.111111 
" style="fill:none;stroke:#000000;stroke-linecap:square;stroke-linejoin:miter;stroke-width:2;"/>
   </g>
   <g id="patch_25">
    <path d="M 1395.147541 1260 
L 1944 1260 
" style="fill:none;stroke:#000000;stroke-linecap:square;stroke-linejoin:miter;stroke-width:2;"/>
   </g>
   <g id="patch_26">
    <path d="M 1395.147541 723.111111 
L 1944 723.111111 
" style="fill:none;stroke:#000000;stroke-linecap:square;stroke-linejoin:miter;stroke-width:2;"/>
   </g>
   <g id="text_40">
    <text style="font-family:Arial;font-size:25px;font-style:normal;font-weight:semibold;text-anchor:end;" transform="rotate(-0, 1933.022951, 1098.933333)" x="1933.022951" y="1098.933333">n = 17539</text>
   </g>
   <g id="text_41">
    <text style="font-family:Arial;font-size:30px;font-style:normal;font-weight:semibold;text-anchor:end;" transform="rotate(-0, 1933.022951, 776.8)" x="1933.022951" y="776.8">4JHW: RSV D25 (HxL)</text>
   </g>
   <g id="line2d_75">
    <path clip-path="url(#pb3c93f4a3d)" d="M 1780.074624 1260 
L 1780.074624 1152.622222 
" style="fill:none;stroke:#dd8452;stroke-linecap:round;stroke-width:4;"/>
   </g>
  </g>
 </g>
 <defs>
  <clipPath id="p81f59b3499">
   <rect height="536.888889" width="548.852459" x="270" y="172.8"/>
  </clipPath>
  <clipPath id="p7c10aabf53">
   <rect height="536.888889" width="548.852459" x="832.57377" y="172.8"/>
  </clipPath>
  <clipPath id="p9d47b40aa9">
   <rect height="536.888889" width="548.852459" x="1395.147541" y="172.8"/>
  </clipPath>
  <clipPath id="pd6e4ea3dd0">
   <rect height="536.888889" width="548.852459" x="832.57377" y="723.111111"/>
  </clipPath>
  <clipPath id="pb3c93f4a3d">
   <rect height="536.888889" width="548.852459" x="1395.147541" y="723.111111"/>
  </clipPath>
 </defs>
</svg>
